<?xml version="1.0" ?><!DOCTYPE svg  PUBLIC '-//W3C//DTD SVG 1.1//EN'  'http://www.w3.org/Graphics/SVG/1.1/DTD/svg11.dtd'><svg height="512px" style="enable-background:new 0 0 512 512;" version="1.1" viewBox="0 0 512 512" width="512px" xml:space="preserve" xmlns="http://www.w3.org/2000/svg" xmlns:xlink="http://www.w3.org/1999/xlink"><g id="_x32_55_x2C__Bank_deposit_x2C__cash_x2C__money"><g><path d="M251.998,319.74h-41.933c-0.572,5.56-0.861,11.232-0.861,16.914c0,15.794,2.192,30.934,6.288,44.279h36.506V319.74z"/><path d="M259.998,380.934h36.509c4.097-13.346,6.289-28.485,6.289-44.279c0-5.772-0.288-11.446-0.857-16.914h-41.94V380.934z"/><path d="M257.356,188.166h-57.216v83.899h10.308c1.252-7.78,5.288-12.917,10.37-14.621c7.006-2.349,17.508,1.437,24.044,19.839    c2.468,6.946,5.969,11.222,9.604,11.729c2.481,0.348,5.089-1.11,7.146-3.998c3.327-4.671,5.354-13.767,0.119-24.03    c-1.004-1.968-0.223-4.377,1.746-5.38c1.967-1.007,4.377-0.224,5.38,1.745c2.631,5.156,3.813,10.15,4.016,14.716h10.399v-33.366    c-10.647,10.794-19.316,13.762-25.611,13.762c-1.582,0-3.014-0.187-4.291-0.482c-6.833-1.583-12.088-7.07-14.416-15.054    c-3.356-11.506-0.481-29.502,13.507-43.771L257.356,188.166z"/><path d="M283.273,280.065h-11.059c-0.834,3.859-2.342,7.142-4.086,9.59c-3.369,4.73-8.107,7.406-12.952,7.407    c-0.604,0-1.211-0.042-1.816-0.127c-3.933-0.549-11.244-3.484-16.037-16.976c-4.086-11.505-10.11-16.221-13.962-14.93    c-4.004,1.342-7.798,10.08-3.223,24.573c0.665,2.106-0.503,4.354-2.61,5.019c-2.104,0.666-4.353-0.504-5.019-2.61    c-1.362-4.316-2.112-8.311-2.365-11.946h-10.004v31.376h83.133V280.065z"/><path d="M345.009,336.654c0-5.703-0.542-11.379-1.612-16.914H309.97c0.543,5.488,0.826,11.154,0.826,16.914    c0,15.654-2.064,30.75-5.945,44.279h28.349C340.71,367.884,345.009,352.762,345.009,336.654z"/><path d="M209.723,388.934h-25.712c11.084,15.232,26.87,26.828,45.21,32.629c-4.622-4.546-8.882-10.312-12.65-17.215    C213.973,399.59,211.69,394.42,209.723,388.934z"/><path d="M251.998,425.335v-36.401h-33.736c1.587,4.086,3.358,7.968,5.33,11.58C231.466,414.937,241.432,423.583,251.998,425.335z"/><polygon points="315.96,202.977 291.273,230.037 291.273,311.441 315.96,311.441   "/><path d="M207.148,380.934c-3.88-13.529-5.944-28.625-5.944-44.279c0-5.677,0.286-11.345,0.832-16.914h-33.435    c-1.061,5.505-1.598,11.18-1.598,16.914c0,16.107,4.298,31.229,11.808,44.279H207.148z"/><path d="M255.998,443.88c59.124,0,107.225-48.102,107.225-107.226c0-5.706-0.443-11.381-1.32-16.914h-10.376    c0.981,5.554,1.482,11.222,1.482,16.914c0,18.192-5.036,35.229-13.781,49.796c-0.147,0.359-0.356,0.684-0.598,0.981    c-17.095,27.729-47.739,46.252-82.632,46.252c-53.482,0-96.994-43.527-96.994-97.029c0-5.719,0.496-11.387,1.469-16.914h-10.37    c-0.88,5.594-1.325,11.269-1.325,16.914C148.777,395.778,196.877,443.88,255.998,443.88z"/><path d="M383.524,353.577h31.524V319.74h-5.034h-26.49h-13.535c0.815,5.55,1.233,11.219,1.233,16.914    c0,63.535-51.689,115.226-115.225,115.226c-63.532,0-115.221-51.69-115.221-115.226c0-5.644,0.42-11.313,1.239-16.914H99.292    h-2.341v33.837h31.524c2.209,0,4,1.791,4,4c0,0.028-0.008,0.054-0.008,0.082c0.092,0.238,0.165,0.487,0.212,0.748    c1.278,7.209,3.183,14.296,5.662,21.066c0.095,0.258,0.161,0.521,0.2,0.782c0.012,0.02,0.027,0.034,0.039,0.054    c1.104,1.913,0.448,4.359-1.465,5.464l-27.313,15.764l16.918,29.292l27.312-15.764c1.915-1.107,4.36-0.449,5.464,1.464    c0.021,0.034,0.029,0.071,0.048,0.106c0.19,0.155,0.371,0.327,0.535,0.522c4.564,5.461,9.757,10.656,15.431,15.443    c0.179,0.151,0.333,0.32,0.479,0.494c0.045,0.023,0.094,0.036,0.139,0.063c1.914,1.104,2.569,3.55,1.465,5.464l-15.765,27.312    l29.295,16.922l15.761-27.314c1.105-1.914,3.552-2.57,5.464-1.466c0.021,0.012,0.035,0.027,0.056,0.04    c0.261,0.039,0.521,0.105,0.779,0.2c6.85,2.507,13.937,4.41,21.064,5.658c0.265,0.047,0.519,0.12,0.761,0.214    c0.026,0,0.051-0.008,0.077-0.008c2.209,0,4,1.791,4,4v31.527h33.83V464.18c0-2.209,1.791-4,4-4c0.026,0,0.051,0.008,0.077,0.008    c0.242-0.094,0.495-0.167,0.761-0.214c7.078-1.239,14.169-3.136,21.075-5.635c0.232-0.084,0.468-0.138,0.704-0.177    c0.042-0.027,0.076-0.062,0.12-0.087c1.913-1.104,4.358-0.448,5.464,1.466l15.761,27.314l29.294-16.921l-15.763-27.276    c-1.105-1.912-0.451-4.359,1.462-5.464c0.024-0.014,0.051-0.021,0.075-0.034c0.16-0.199,0.339-0.388,0.541-0.559    c5.676-4.788,10.867-9.984,15.431-15.443c0.164-0.196,0.346-0.367,0.536-0.523c0.018-0.034,0.027-0.07,0.047-0.104    c1.104-1.914,3.549-2.569,5.464-1.466l27.314,15.765l16.915-29.292l-27.311-15.764c-1.913-1.104-2.569-3.551-1.465-5.464    c0.012-0.02,0.027-0.034,0.039-0.054c0.039-0.262,0.105-0.523,0.2-0.782c2.48-6.773,4.385-13.86,5.66-21.065    c0.047-0.265,0.12-0.517,0.214-0.757c0-0.025-0.007-0.049-0.007-0.074C379.524,355.368,381.315,353.577,383.524,353.577z"/><path d="M238.142,106.544c-0.664,9.592-1.41,20.295-9.471,33.717h45.391c2.395-5.411,6.059-10.134,9.617-14.723    c6.563-8.461,12.232-15.769,9.261-25.719c-0.633-2.117,0.57-4.346,2.688-4.978c2.115-0.634,4.345,0.57,4.978,2.688    c4.149,13.893-3.688,23.997-10.604,32.912c-3.425,4.416-6.684,8.618-8.671,13.166c1.768,2.649,2.533,5.424,3.16,7.75    c1.111,4.126,1.447,5.372,5.422,5.719c1.542,0.135,2.868,1.147,3.404,2.601c0.536,1.452,0.186,3.084-0.899,4.188    c-7.798,7.935-15.596,15.884-23.389,23.827l-10.854,11.064c-11.722,11.956-14.241,26.66-11.538,35.928    c0.879,3.013,3.157,8.253,8.543,9.501c6.487,1.507,15.464-3.396,24.623-13.442l58.004-63.582c1.488-1.633,4.02-1.748,5.651-0.259    c1.632,1.488,1.748,4.019,0.259,5.65l-19.755,21.654v54.481c55.132-51.558,54.263-66.248,50.959-121.399    c-0.914-15.264-2.039-34.067-2.157-57.415h18.396c2.209,0,4-1.791,4-4V22.682c0-2.209-1.791-4-4-4s-4,1.791-4,4v39.192H239.982    V20.293c0-2.209-1.791-4-4-4s-4,1.791-4,4v45.581c0,2.209,1.791,4,4,4h21.388C239.726,83.863,239.018,93.902,238.142,106.544z"/><path d="M327.999,388.934h-25.723c-1.968,5.486-4.251,10.656-6.849,15.414c-3.77,6.904-8.03,12.67-12.652,17.217    C301.12,415.764,316.912,404.167,327.999,388.934z"/><path d="M288.406,400.514c1.973-3.612,3.744-7.495,5.331-11.58h-33.739v36.401C270.566,423.583,280.532,414.937,288.406,400.514z"/><path d="M192.141,184.898c0-0.125,0.025-0.243,0.037-0.366c-0.012-0.122-0.037-0.24-0.037-0.366c0-2.209,1.791-4,4-4h69.064    c5.672-5.781,11.346-11.565,17.021-17.344c-3.585-2.422-4.628-6.291-5.461-9.383c-0.503-1.866-0.99-3.649-1.945-5.179h-53.615    c-0.001,0-0.003,0.001-0.004,0.001c-0.002,0-0.004-0.001-0.007-0.001H169.61v163.181h22.53V184.898z"/><path d="M257.61,50.519c6.388,0,11.584-5.189,11.584-11.567c0-6.399-5.196-11.606-11.584-11.606    c-6.39,0-11.588,5.207-11.588,11.606C246.022,45.329,251.221,50.519,257.61,50.519z"/></g></g><g id="Layer_1"/></svg>